<?xml version="1.0"?>
<svg width="433.5841692661143" height="163" xmlns="http://www.w3.org/2000/svg" xmlns:svg="http://www.w3.org/2000/svg" class="iconAbove">
 <!---->
 <!---->
 <!---->
 <!---->
 <!---->
 <g class="layer">
  <title>Layer 1</title>
  <g fill="white" id="37bdbe38-7051-483c-b332-6ac26c84d56d" transform="matrix(2.56215 0 0 2.64823 130.972 -167.656)">
   <path d="m6.02,124.38c-1.55,0 -2.97,-1.14 -3.28,-2.69l-4.05,-19.38l2.32,0.18l4.24,18.7c0.07,0.35 0.47,0.63 0.82,0.63l71.5,-5.08c0.39,-0.03 0.83,-0.44 0.88,-0.83l2.52,-17.83l2.54,0.35l-2.52,17.84c-0.22,1.58 -1.65,2.91 -3.24,3.02l-71.5,5.08a2.89,2.89 0 0 1 -0.23,0.01z" id="svg_2"/>
   <path d="m2.64,110.85c1.85,-1.53 4.64,-1.04 6.2,0.57c2.12,-2.56 6.06,-3.26 9.12,-2.72c0.88,0.16 1.09,0.36 2.01,0.38c1.73,0.05 3.36,-0.12 5.18,0.07c3.11,0.33 6.28,-1.05 9.56,-1.08c2.84,-0.02 6.39,-0.3 9.13,0.58c0.83,0.26 1.42,1.25 2.33,1.15c0.57,-0.06 1.4,-1.31 1.84,-1.62c1.34,-0.95 2.17,-1.12 3.77,-1.18c2.25,-0.09 3.91,1.17 5.89,1.29c1.78,0.11 0.54,0.1 2.1,-1.14c3.33,-2.63 8.11,-0.71 12,-0.99c2.99,-0.22 5.87,-1.83 8.95,-1.47c-0.65,2.64 -1.34,5.03 -1.5,7.82c-2.72,0.93 -5.97,-0.11 -8.71,-0.39c-1.63,-0.16 -2.79,-0.56 -4.06,0.16c-0.81,0.45 -1.09,1.51 -2.13,1.99c-1.63,0.74 -2.74,0.29 -4.23,-0.39c-2.43,-1.12 -2.51,-1.22 -4.99,-0.26c-2.77,1.06 -5.35,1.28 -8.29,1.28c-4.66,-0.01 -9.25,-1.33 -13.83,-1.25c-0.47,1.55 -2.07,2.36 -3.61,2.6c-2.78,0.42 -3.66,-1.2 -5.37,-2.88c-2.57,2.15 -7.4,1.78 -10.73,1.95c-2.32,0.12 -4.13,0.48 -6.38,1.02c-0.57,0.14 -1.12,0.33 -1.68,0.43c-0.71,0.12 -1.32,0.32 -1.07,0.05m78.34,-19.81l-18,-12.8c-0.26,0.87 -0.77,2.12 -1.29,2.38c1.09,0 2.06,0.72 1.45,2.78c-0.6,2.07 -6.66,6.42 -13.08,5.46c-6.43,-0.97 -11.64,-2.42 -12.12,-7.51c-0.24,-2.55 0.18,-4.06 0.79,-5.06l-40.3,19.53c-1.79,0.87 -1.63,1.51 0.36,1.41l81.53,-3.92c1.99,-0.09 2.29,-1.12 0.66,-2.27z" id="svg_3"/>
   <path d="m63.67,85.5l0.3,0.37c0.18,0.23 0.48,0.61 0.72,1.16c0.24,0.54 0.49,1.3 0.37,2.21c-0.1,0.91 -0.6,1.89 -1.38,2.67c-0.77,0.79 -1.74,1.43 -2.82,1.94l-1.58,0.74c-0.6,0.24 -1.23,0.45 -1.85,0.63c-1.25,0.34 -2.56,0.61 -3.92,0.69a23.43,23.43 0 0 1 -4.1,-0.07a19.75,19.75 0 0 1 -4.04,-0.93a12.84,12.84 0 0 1 -3.63,-1.93c-1.09,-0.82 -1.98,-1.89 -2.52,-3.07c-0.57,-1.17 -0.71,-2.42 -0.61,-3.5c0.09,-1.09 0.44,-2 0.77,-2.76c0.36,-0.75 0.74,-1.36 1.09,-1.83c0.31,-0.5 0.65,-0.81 0.84,-1.06l0.31,-0.35s-0.07,0.15 -0.19,0.43c-0.12,0.29 -0.32,0.69 -0.51,1.22c-0.22,0.52 -0.42,1.18 -0.61,1.91c-0.15,0.75 -0.29,1.59 -0.23,2.47c0.07,0.87 0.33,1.77 0.83,2.58c0.5,0.81 1.25,1.52 2.14,2.13c0.9,0.6 1.98,1.04 3.11,1.41c1.12,0.37 2.33,0.61 3.55,0.74c1.21,0.15 2.45,0.2 3.66,0.14c1.21,-0.06 2.4,-0.17 3.53,-0.41c0.57,-0.11 1.09,-0.27 1.6,-0.4l1.62,-0.54c0.99,-0.36 1.89,-0.76 2.59,-1.28c0.69,-0.52 1.17,-1.12 1.4,-1.78c0.22,-0.65 0.19,-1.31 0.1,-1.85a6.13,6.13 0 0 0 -0.36,-1.25c-0.12,-0.28 -0.18,-0.43 -0.18,-0.43z" id="svg_4"/>
   <path d="m55.19,85.25c-0.7,0.11 -1.39,0.27 -2.11,0.31c-0.72,0.07 -1.43,0.09 -2.15,0.09a21.68,21.68 0 0 1 -2.17,-0.15l-1.08,-0.16l-1.08,-0.26c-0.36,-0.08 -0.71,-0.22 -1.07,-0.34c-0.35,-0.13 -0.71,-0.25 -1.05,-0.44c-0.7,-0.31 -1.35,-0.77 -1.96,-1.31c-0.28,-0.3 -0.59,-0.59 -0.83,-0.93c-0.21,-0.38 -0.46,-0.74 -0.62,-1.15c-0.12,-0.42 -0.26,-0.85 -0.32,-1.28c-0.02,-0.43 -0.01,-0.86 -0.01,-1.3c0.17,-0.81 0.34,-1.64 0.71,-2.34c0.29,-0.76 0.75,-1.37 1.15,-2.03l0.16,-0.24c0.04,-0.06 0.01,-0.03 0.11,-0.17l0.09,-0.1l0.34,-0.41c0.18,-0.25 0.56,-0.58 0.86,-0.87a10.52,10.52 0 0 1 1.97,-1.37c1.36,-0.74 2.77,-1.21 3.69,-1.79c0.44,-0.3 0.68,-0.6 0.84,-1c0.18,-0.39 0.17,-0.97 0.16,-1.55l-0.07,-2.79l2.07,1.72a36.55,36.55 0 0 1 4.1,4c1.24,1.48 2.41,3.09 3.02,5.11c0.27,1 0.34,2.19 -0.13,3.24a3.99,3.99 0 0 1 -0.95,1.34a5.76,5.76 0 0 1 -1.27,0.88c-0.89,0.46 -1.82,0.73 -2.75,0.89c-0.93,0.19 -1.87,0.24 -2.8,0.28c0.9,-0.24 1.79,-0.51 2.64,-0.84c0.86,-0.32 1.68,-0.72 2.37,-1.22c0.35,-0.25 0.65,-0.53 0.9,-0.84c0.24,-0.31 0.44,-0.64 0.53,-0.99c0.21,-0.69 0.09,-1.46 -0.21,-2.21c-0.58,-1.51 -1.76,-2.88 -2.98,-4.16c-1.23,-1.28 -2.61,-2.45 -4.02,-3.57l2,-1.06c0.04,0.82 0.08,1.69 -0.27,2.62c-0.31,0.93 -1.02,1.76 -1.76,2.24c-1.46,0.95 -2.8,1.3 -3.92,1.91a8.07,8.07 0 0 0 -1.52,1.01c-0.2,0.2 -0.39,0.3 -0.63,0.61l-0.35,0.4l-0.08,0.1c0.05,-0.07 -0.03,0.04 -0.03,0.05l-0.14,0.19c-0.36,0.53 -0.79,1.04 -1.02,1.6c-0.34,0.54 -0.45,1.1 -0.62,1.66c-0.01,0.27 -0.02,0.54 -0.05,0.81c0.02,0.27 0.1,0.51 0.13,0.78c0.07,0.26 0.22,0.49 0.32,0.75c0.14,0.24 0.35,0.45 0.51,0.69c0.42,0.43 0.9,0.83 1.45,1.16c0.26,0.2 0.56,0.34 0.85,0.48c0.3,0.15 0.59,0.31 0.91,0.42c0.62,0.25 1.27,0.46 1.93,0.65c0.66,0.18 1.34,0.33 2.02,0.45c0.69,0.11 1.38,0.23 2.07,0.28c0.7,0.1 1.41,0.11 2.12,0.15z" id="svg_5"/>
   <path d="m58.34,78.71s0.1,-0.06 0.29,-0.18c0.17,-0.15 0.48,-0.26 0.95,-0.35a4.7,4.7 0 0 1 1.61,0.09c0.61,0.14 1.27,0.41 1.95,0.82c0.63,0.46 1.34,1.01 1.82,1.86c0.54,0.8 0.84,1.92 0.71,3.04l-0.14,0.83c-0.07,0.28 -0.2,0.52 -0.3,0.78c-0.19,0.55 -0.52,0.98 -0.85,1.41c-0.31,0.47 -0.7,0.8 -1.09,1.16c-0.37,0.39 -0.79,0.68 -1.21,0.96l-0.64,0.43l-0.15,0.1l-0.08,0.06l-0.02,0.01l-0.11,0.06l-0.04,0.02l-0.31,0.15c-0.44,0.2 -0.81,0.41 -1.3,0.58c-0.5,0.17 -1.01,0.32 -1.51,0.45c-0.49,0.11 -0.96,0.16 -1.43,0.24c-0.93,0.16 -1.84,0.11 -2.68,0.1c-0.84,-0.08 -1.64,-0.13 -2.35,-0.31a11.15,11.15 0 0 1 -1.92,-0.5c-0.56,-0.19 -1.04,-0.35 -1.42,-0.55c-0.76,-0.37 -1.17,-0.6 -1.17,-0.6s0.49,0.03 1.3,0.11c0.4,0.06 0.91,0.04 1.47,0.07c0.56,0.04 1.19,0.02 1.87,0.01c0.68,0.01 1.41,-0.11 2.17,-0.15c0.38,-0.02 0.77,-0.12 1.16,-0.18c0.39,-0.07 0.79,-0.1 1.18,-0.23c0.39,-0.1 0.81,-0.18 1.19,-0.31c0.35,-0.14 0.72,-0.28 1.08,-0.4c0.38,-0.14 0.81,-0.41 1.22,-0.6l0.32,-0.16l0.03,-0.02l-0.07,0.04l0.01,0l0.01,-0.01l0.07,-0.05l0.13,-0.09l0.52,-0.37c0.36,-0.23 0.72,-0.46 1,-0.75c0.28,-0.28 0.64,-0.51 0.84,-0.82c0.24,-0.3 0.51,-0.57 0.63,-0.88c0.08,-0.15 0.19,-0.3 0.24,-0.45l0.13,-0.46c0.1,-0.61 0.1,-1.25 -0.18,-1.84c-0.22,-0.6 -0.64,-1.12 -1.05,-1.59c-0.45,-0.42 -0.91,-0.8 -1.37,-1.05a5.35,5.35 0 0 0 -1.27,-0.51c-0.34,-0.04 -0.68,-0.1 -0.9,-0.02l-0.34,0.05z" id="svg_6"/>
  </g>
 </g>
</svg>