<svg data-v-423bf9ae="" xmlns="http://www.w3.org/2000/svg" viewBox="0 0 433.5841692661143 60" class="font"><!----><!----><!----><g data-v-423bf9ae="" id="9fbafe6f-d6c2-4bf8-89b9-62943b9ce2e0" fill="white" transform="matrix(4.1039674680923515,0,0,4.1039674680923515,-0.5745519151570022,-11.03967320083649)"><path d="M1.60 11.27L1.60 7.87L0.14 7.87L0.29 6.86L0.29 6.86Q0.66 6.73 0.92 6.62L0.92 6.62L0.92 6.62Q1.19 6.50 1.39 6.37L1.39 6.37L1.39 6.37Q1.59 6.23 1.75 6.08L1.75 6.08L1.75 6.08Q1.90 5.92 2.04 5.70L2.04 5.70L2.04 5.70Q2.18 5.49 2.32 5.22L2.32 5.22L2.32 5.22Q2.47 4.94 2.65 4.57L2.65 4.57L3.83 4.57L3.83 6.40L6.39 6.40L6.06 7.87L3.97 7.87L3.97 10.96L3.97 10.96Q3.97 11.64 4.32 11.92L4.32 11.92L4.32 11.92Q4.68 12.19 5.33 12.19L5.33 12.19L5.33 12.19Q5.59 12.19 5.86 12.14L5.86 12.14L5.86 12.14Q6.13 12.10 6.38 12.00L6.38 12.00L6.38 13.02L6.38 13.02Q5.85 13.41 5.21 13.59L5.21 13.59L5.21 13.59Q4.57 13.78 3.94 13.78L3.94 13.78L3.94 13.78Q3.31 13.78 2.86 13.61L2.86 13.61L2.86 13.61Q2.42 13.43 2.14 13.10L2.14 13.10L2.14 13.10Q1.86 12.78 1.73 12.31L1.73 12.31L1.73 12.31Q1.60 11.85 1.60 11.27L1.60 11.27ZM8.01 13.64L8.01 2.69L10.38 2.69L10.38 7.55L10.38 7.55Q10.66 7.32 10.95 7.09L10.95 7.09L10.95 7.09Q11.25 6.86 11.58 6.68L11.58 6.68L11.58 6.68Q11.91 6.49 12.27 6.38L12.27 6.38L12.27 6.38Q12.63 6.26 13.02 6.26L13.02 6.26L13.02 6.26Q13.51 6.26 13.91 6.44L13.91 6.44L13.91 6.44Q14.32 6.62 14.61 6.95L14.61 6.95L14.61 6.95Q14.90 7.27 15.07 7.73L15.07 7.73L15.07 7.73Q15.23 8.20 15.23 8.76L15.23 8.76L15.23 13.64L12.85 13.64L12.85 9.10L12.85 9.10Q12.85 8.80 12.77 8.57L12.77 8.57L12.77 8.57Q12.69 8.33 12.54 8.18L12.54 8.18L12.54 8.18Q12.39 8.02 12.20 7.94L12.20 7.94L12.20 7.94Q12.00 7.86 11.76 7.86L11.76 7.86L11.76 7.86Q11.40 7.86 11.06 8.04L11.06 8.04L11.06 8.04Q10.72 8.22 10.38 8.51L10.38 8.51L10.38 13.64L8.01 13.64ZM23.63 11.87L23.63 12.89L23.63 12.89Q23.26 13.15 22.87 13.32L22.87 13.32L22.87 13.32Q22.48 13.49 22.10 13.60L22.10 13.60L22.10 13.60Q21.72 13.70 21.35 13.74L21.35 13.74L21.35 13.74Q20.98 13.78 20.64 13.78L20.64 13.78L20.64 13.78Q19.76 13.78 19.06 13.55L19.06 13.55L19.06 13.55Q18.35 13.31 17.86 12.87L17.86 12.87L17.86 12.87Q17.37 12.42 17.11 11.77L17.11 11.77L17.11 11.77Q16.84 11.12 16.84 10.29L16.84 10.29L16.84 10.29Q16.84 9.34 17.17 8.60L17.17 8.60L17.17 8.60Q17.50 7.85 18.05 7.33L18.05 7.33L18.05 7.33Q18.60 6.82 19.33 6.54L19.33 6.54L19.33 6.54Q20.05 6.26 20.84 6.26L20.84 6.26L20.84 6.26Q21.53 6.26 22.10 6.47L22.10 6.47L22.10 6.47Q22.68 6.69 23.10 7.10L23.10 7.10L23.10 7.10Q23.52 7.51 23.75 8.12L23.75 8.12L23.75 8.12Q23.99 8.74 23.99 9.54L23.99 9.54L23.99 9.54Q23.99 9.80 23.96 10.01L23.96 10.01L23.96 10.01Q23.94 10.23 23.91 10.38L23.91 10.38L19.28 10.38L19.28 10.38Q19.28 10.86 19.45 11.20L19.45 11.20L19.45 11.20Q19.62 11.54 19.93 11.76L19.93 11.76L19.93 11.76Q20.24 11.98 20.68 12.09L20.68 12.09L20.68 12.09Q21.12 12.19 21.66 12.19L21.66 12.19L21.66 12.19Q21.85 12.19 22.08 12.17L22.08 12.17L22.08 12.17Q22.32 12.16 22.58 12.12L22.58 12.12L22.58 12.12Q22.83 12.09 23.10 12.03L23.10 12.03L23.10 12.03Q23.37 11.97 23.63 11.87L23.63 11.87ZM19.28 9.54L21.83 9.54L21.83 9.54Q21.83 9.07 21.74 8.73L21.74 8.73L21.74 8.73Q21.65 8.39 21.49 8.17L21.49 8.17L21.49 8.17Q21.32 7.94 21.10 7.84L21.10 7.84L21.10 7.84Q20.87 7.73 20.60 7.73L20.60 7.73L20.60 7.73Q20.31 7.73 20.07 7.85L20.07 7.85L20.07 7.85Q19.82 7.98 19.65 8.21L19.65 8.21L19.65 8.21Q19.48 8.44 19.38 8.78L19.38 8.78L19.38 8.78Q19.28 9.11 19.28 9.54L19.28 9.54ZM28.39 13.33L28.39 2.69L30.76 2.69L30.76 7.41L30.76 7.41Q31.04 7.19 31.33 6.98L31.33 6.98L31.33 6.98Q31.62 6.77 31.93 6.61L31.93 6.61L31.93 6.61Q32.24 6.45 32.57 6.36L32.57 6.36L32.57 6.36Q32.91 6.26 33.28 6.26L33.28 6.26L33.28 6.26Q33.91 6.26 34.42 6.55L34.42 6.55L34.42 6.55Q34.92 6.84 35.28 7.32L35.28 7.32L35.28 7.32Q35.63 7.81 35.82 8.43L35.82 8.43L35.82 8.43Q36.01 9.06 36.01 9.73L36.01 9.73L36.01 9.73Q36.01 10.58 35.71 11.32L35.71 11.32L35.71 11.32Q35.41 12.06 34.82 12.61L34.82 12.61L34.82 12.61Q34.23 13.15 33.37 13.47L33.37 13.47L33.37 13.47Q32.51 13.78 31.40 13.78L31.40 13.78L31.40 13.78Q31.12 13.78 30.77 13.76L30.77 13.76L30.77 13.76Q30.41 13.73 30.02 13.68L30.02 13.68L30.02 13.68Q29.63 13.63 29.21 13.55L29.21 13.55L29.21 13.55Q28.80 13.46 28.39 13.33L28.39 13.33ZM30.76 8.35L30.76 12.08L30.76 12.08Q31.05 12.20 31.31 12.26L31.31 12.26L31.31 12.26Q31.57 12.31 31.79 12.31L31.79 12.31L31.79 12.31Q32.23 12.31 32.57 12.11L32.57 12.11L32.57 12.11Q32.90 11.92 33.12 11.59L33.12 11.59L33.12 11.59Q33.35 11.27 33.46 10.85L33.46 10.85L33.46 10.85Q33.57 10.42 33.57 9.98L33.57 9.98L33.57 9.98Q33.57 9.54 33.47 9.16L33.47 9.16L33.47 9.16Q33.36 8.77 33.15 8.48L33.15 8.48L33.15 8.48Q32.95 8.20 32.65 8.03L32.65 8.03L32.65 8.03Q32.35 7.86 31.96 7.86L31.96 7.86L31.96 7.86Q31.72 7.86 31.41 7.96L31.41 7.96L31.41 7.96Q31.11 8.06 30.76 8.35L30.76 8.35ZM41.55 12.60L41.55 12.60L41.55 12.60Q41.34 12.77 41.08 12.97L41.08 12.97L41.08 12.97Q40.82 13.18 40.52 13.36L40.52 13.36L40.52 13.36Q40.21 13.54 39.86 13.66L39.86 13.66L39.86 13.66Q39.51 13.78 39.12 13.78L39.12 13.78L39.12 13.78Q38.65 13.78 38.29 13.60L38.29 13.60L38.29 13.60Q37.94 13.42 37.70 13.13L37.70 13.13L37.70 13.13Q37.47 12.83 37.35 12.46L37.35 12.46L37.35 12.46Q37.23 12.09 37.23 11.72L37.23 11.72L37.23 11.72Q37.23 11.22 37.46 10.77L37.46 10.77L37.46 10.77Q37.69 10.33 38.17 10.00L38.17 10.00L38.17 10.00Q38.66 9.67 39.41 9.47L39.41 9.47L39.41 9.47Q40.16 9.28 41.20 9.28L41.20 9.28L41.47 9.28L41.47 8.86L41.47 8.86Q41.47 8.31 41.13 8.02L41.13 8.02L41.13 8.02Q40.78 7.73 40.21 7.73L40.21 7.73L40.21 7.73Q39.96 7.73 39.68 7.79L39.68 7.79L39.68 7.79Q39.40 7.85 39.12 7.96L39.12 7.96L39.12 7.96Q38.84 8.07 38.58 8.21L38.58 8.21L38.58 8.21Q38.31 8.35 38.08 8.52L38.08 8.52L37.95 8.45L37.55 7.01L37.55 7.01Q38.43 6.60 39.22 6.43L39.22 6.43L39.22 6.43Q40.00 6.26 40.76 6.26L40.76 6.26L40.76 6.26Q41.41 6.26 41.98 6.38L41.98 6.38L41.98 6.38Q42.54 6.51 42.95 6.78L42.95 6.78L42.95 6.78Q43.37 7.06 43.61 7.51L43.61 7.51L43.61 7.51Q43.85 7.95 43.85 8.60L43.85 8.60L43.85 11.51L43.85 11.51Q43.85 11.63 43.87 11.75L43.87 11.75L43.87 11.75Q43.89 11.87 43.94 11.97L43.94 11.97L43.94 11.97Q44.00 12.07 44.09 12.13L44.09 12.13L44.09 12.13Q44.19 12.19 44.34 12.19L44.34 12.19L44.34 12.19Q44.43 12.19 44.53 12.17L44.53 12.17L44.53 12.17Q44.62 12.16 44.73 12.11L44.73 12.11L44.73 13.13L44.73 13.13Q44.29 13.43 43.85 13.61L43.85 13.61L43.85 13.61Q43.40 13.78 42.98 13.78L42.98 13.78L42.98 13.78Q42.44 13.78 42.10 13.47L42.10 13.47L42.10 13.47Q41.75 13.17 41.55 12.60ZM41.47 11.70L41.47 10.12L41.21 10.12L41.21 10.12Q40.67 10.12 40.31 10.20L40.31 10.20L40.31 10.20Q39.96 10.27 39.75 10.42L39.75 10.42L39.75 10.42Q39.55 10.56 39.46 10.76L39.46 10.76L39.46 10.76Q39.38 10.96 39.38 11.22L39.38 11.22L39.38 11.22Q39.38 11.48 39.46 11.66L39.46 11.66L39.46 11.66Q39.53 11.84 39.66 11.96L39.66 11.96L39.66 11.96Q39.79 12.08 39.95 12.13L39.95 12.13L39.95 12.13Q40.12 12.19 40.30 12.19L40.30 12.19L40.30 12.19Q40.56 12.19 40.85 12.08L40.85 12.08L40.85 12.08Q41.14 11.98 41.47 11.70L41.47 11.70ZM46.01 13.64L46.01 2.69L48.38 2.69L48.38 13.64L46.01 13.64ZM53.61 13.64L50.82 13.64L48.65 9.91L51.26 6.46L53.45 6.46L50.89 9.52L53.61 13.64ZM61.00 11.87L61.00 12.89L61.00 12.89Q60.63 13.15 60.25 13.32L60.25 13.32L60.25 13.32Q59.86 13.49 59.48 13.60L59.48 13.60L59.48 13.60Q59.10 13.70 58.73 13.74L58.73 13.74L58.73 13.74Q58.36 13.78 58.02 13.78L58.02 13.78L58.02 13.78Q57.14 13.78 56.44 13.55L56.44 13.55L56.44 13.55Q55.73 13.31 55.24 12.87L55.24 12.87L55.24 12.87Q54.75 12.42 54.49 11.77L54.49 11.77L54.49 11.77Q54.22 11.12 54.22 10.29L54.22 10.29L54.22 10.29Q54.22 9.34 54.55 8.60L54.55 8.60L54.55 8.60Q54.88 7.85 55.43 7.33L55.43 7.33L55.43 7.33Q55.98 6.82 56.70 6.54L56.70 6.54L56.70 6.54Q57.43 6.26 58.22 6.26L58.22 6.26L58.22 6.26Q58.91 6.26 59.48 6.47L59.48 6.47L59.48 6.47Q60.06 6.69 60.48 7.10L60.48 7.10L60.48 7.10Q60.90 7.51 61.13 8.12L61.13 8.12L61.13 8.12Q61.37 8.74 61.37 9.54L61.37 9.54L61.37 9.54Q61.37 9.80 61.34 10.01L61.34 10.01L61.34 10.01Q61.32 10.23 61.28 10.38L61.28 10.38L56.66 10.38L56.66 10.38Q56.66 10.86 56.83 11.20L56.83 11.20L56.83 11.20Q57.00 11.54 57.31 11.76L57.31 11.76L57.31 11.76Q57.62 11.98 58.06 12.09L58.06 12.09L58.06 12.09Q58.50 12.19 59.04 12.19L59.04 12.19L59.04 12.19Q59.23 12.19 59.46 12.17L59.46 12.17L59.46 12.17Q59.70 12.16 59.95 12.12L59.95 12.12L59.95 12.12Q60.21 12.09 60.48 12.03L60.48 12.03L60.48 12.03Q60.74 11.97 61.00 11.87L61.00 11.87ZM56.66 9.54L59.21 9.54L59.21 9.54Q59.21 9.07 59.12 8.73L59.12 8.73L59.12 8.73Q59.03 8.39 58.86 8.17L58.86 8.17L58.86 8.17Q58.70 7.94 58.47 7.84L58.47 7.84L58.47 7.84Q58.25 7.73 57.98 7.73L57.98 7.73L57.98 7.73Q57.69 7.73 57.45 7.85L57.45 7.85L57.45 7.85Q57.20 7.98 57.03 8.21L57.03 8.21L57.03 8.21Q56.85 8.44 56.76 8.78L56.76 8.78L56.76 8.78Q56.66 9.11 56.66 9.54L56.66 9.54ZM63 13.64L63 6.40L65.00 6.40L65.29 8.52L65.29 8.52Q65.40 8.33 65.51 8.12L65.51 8.12L65.51 8.12Q65.63 7.92 65.72 7.74L65.72 7.74L65.72 7.74Q65.82 7.57 65.90 7.44L65.90 7.44L65.90 7.44Q65.98 7.31 66.01 7.25L66.01 7.25L66.01 7.25Q66.14 7.03 66.31 6.85L66.31 6.85L66.31 6.85Q66.47 6.67 66.67 6.54L66.67 6.54L66.67 6.54Q66.87 6.41 67.12 6.34L67.12 6.34L67.12 6.34Q67.36 6.26 67.66 6.26L67.66 6.26L67.66 6.26Q67.86 6.26 68.10 6.31L68.10 6.31L68.10 6.31Q68.33 6.36 68.53 6.48L68.53 6.48L68.27 8.61L68.27 8.61Q68.21 8.60 68.11 8.59L68.11 8.59L68.11 8.59Q68.00 8.58 67.89 8.57L67.89 8.57L67.89 8.57Q67.78 8.57 67.67 8.56L67.67 8.56L67.67 8.56Q67.57 8.56 67.48 8.56L67.48 8.56L67.48 8.56Q66.79 8.56 66.25 8.83L66.25 8.83L66.25 8.83Q65.71 9.09 65.37 9.51L65.37 9.51L65.37 13.64L63 13.64ZM71.54 13.64L69.19 6.40L71.75 6.40L72.82 10.53L73.10 11.96L73.24 11.96L73.51 10.53L74.59 6.40L76.61 6.40L73.08 17.31L71.01 17.31L72.58 13.64L71.54 13.64ZM80.65 13.33L80.65 2.69L83.02 2.69L83.02 7.41L83.02 7.41Q83.30 7.19 83.59 6.98L83.59 6.98L83.59 6.98Q83.88 6.77 84.19 6.61L84.19 6.61L84.19 6.61Q84.50 6.45 84.83 6.36L84.83 6.36L84.83 6.36Q85.17 6.26 85.54 6.26L85.54 6.26L85.54 6.26Q86.17 6.26 86.68 6.55L86.68 6.55L86.68 6.55Q87.19 6.84 87.54 7.32L87.54 7.32L87.54 7.32Q87.89 7.81 88.08 8.43L88.08 8.43L88.08 8.43Q88.27 9.06 88.27 9.73L88.27 9.73L88.27 9.73Q88.27 10.58 87.97 11.32L87.97 11.32L87.97 11.32Q87.67 12.06 87.08 12.61L87.08 12.61L87.08 12.61Q86.50 13.15 85.63 13.47L85.63 13.47L85.63 13.47Q84.77 13.78 83.66 13.78L83.66 13.78L83.66 13.78Q83.38 13.78 83.03 13.76L83.03 13.76L83.03 13.76Q82.67 13.73 82.28 13.68L82.28 13.68L82.28 13.68Q81.89 13.63 81.47 13.55L81.47 13.55L81.47 13.55Q81.06 13.46 80.65 13.33L80.65 13.33ZM83.02 8.35L83.02 12.08L83.02 12.08Q83.31 12.20 83.57 12.26L83.57 12.26L83.57 12.26Q83.83 12.31 84.05 12.31L84.05 12.31L84.05 12.31Q84.49 12.31 84.83 12.11L84.83 12.11L84.83 12.11Q85.16 11.92 85.38 11.59L85.38 11.59L85.38 11.59Q85.61 11.27 85.72 10.85L85.72 10.85L85.72 10.85Q85.83 10.42 85.83 9.98L85.83 9.98L85.83 9.98Q85.83 9.54 85.73 9.16L85.73 9.16L85.73 9.16Q85.62 8.77 85.42 8.48L85.42 8.48L85.42 8.48Q85.21 8.20 84.91 8.03L84.91 8.03L84.91 8.03Q84.62 7.86 84.23 7.86L84.23 7.86L84.23 7.86Q83.98 7.86 83.68 7.96L83.68 7.96L83.68 7.96Q83.37 8.06 83.02 8.35L83.02 8.35ZM93.19 13.78L93.19 13.78L93.19 13.78Q92.26 13.78 91.56 13.49L91.56 13.49L91.56 13.49Q90.86 13.20 90.39 12.71L90.39 12.71L90.39 12.71Q89.93 12.22 89.70 11.58L89.70 11.58L89.70 11.58Q89.47 10.93 89.47 10.22L89.47 10.22L89.47 10.22Q89.47 9.39 89.77 8.67L89.77 8.67L89.77 8.67Q90.07 7.94 90.62 7.41L90.62 7.41L90.62 7.41Q91.17 6.88 91.95 6.57L91.95 6.57L91.95 6.57Q92.73 6.26 93.69 6.26L93.69 6.26L93.69 6.26Q94.62 6.26 95.32 6.55L95.32 6.55L95.32 6.55Q96.02 6.84 96.48 7.32L96.48 7.32L96.48 7.32Q96.95 7.81 97.18 8.46L97.18 8.46L97.18 8.46Q97.42 9.11 97.42 9.84L97.42 9.84L97.42 9.84Q97.42 10.68 97.11 11.41L97.11 11.41L97.11 11.41Q96.80 12.13 96.25 12.66L96.25 12.66L96.25 12.66Q95.69 13.19 94.91 13.48L94.91 13.48L94.91 13.48Q94.14 13.78 93.19 13.78ZM93.49 12.31L93.49 12.31L93.49 12.31Q93.81 12.31 94.08 12.17L94.08 12.17L94.08 12.17Q94.35 12.04 94.55 11.76L94.55 11.76L94.55 11.76Q94.75 11.48 94.86 11.07L94.86 11.07L94.86 11.07Q94.97 10.66 94.97 10.12L94.97 10.12L94.97 10.12Q94.97 9.60 94.87 9.17L94.87 9.17L94.87 9.17Q94.76 8.73 94.56 8.41L94.56 8.41L94.56 8.41Q94.36 8.09 94.07 7.91L94.07 7.91L94.07 7.91Q93.78 7.73 93.40 7.73L93.40 7.73L93.40 7.73Q93.07 7.73 92.80 7.88L92.80 7.88L92.80 7.88Q92.52 8.03 92.33 8.31L92.33 8.31L92.33 8.31Q92.13 8.59 92.03 9.00L92.03 9.00L92.03 9.00Q91.92 9.41 91.92 9.94L91.92 9.94L91.92 9.94Q91.92 10.48 92.03 10.92L92.03 10.92L92.03 10.92Q92.13 11.35 92.34 11.67L92.34 11.67L92.34 11.67Q92.54 11.98 92.84 12.14L92.84 12.14L92.84 12.14Q93.13 12.31 93.49 12.31ZM100.19 13.64L98.10 13.64L100.74 10.01L98.25 6.40L100.99 6.40L101.68 7.55L102.21 8.74L102.33 8.74L102.86 7.55L103.55 6.40L105.64 6.40L103.13 9.77L105.79 13.64L103.06 13.64L102.22 12.24L101.66 11.12L101.55 11.12L101.02 12.23L100.19 13.64Z"></path></g><!----><!----></svg>